<?xml version="1.0" encoding="UTF-8"?>
<svg xmlns="http://www.w3.org/2000/svg" id="Artboard_30" data-name="Artboard 30" viewBox="0 0 64 64" width="512" height="512"><path d="M58,25H43.78l-1.431-5.728A3,3,0,0,0,39.438,17H24.562a3,3,0,0,0-2.911,2.272L20.22,25H18V23a3,3,0,0,0-3-3H9a3,3,0,0,0-3,3v2a5.006,5.006,0,0,0-5,5V58a5.006,5.006,0,0,0,5,5H58a5.006,5.006,0,0,0,5-5V30A5.006,5.006,0,0,0,58,25ZM23.591,19.758A1,1,0,0,1,24.562,19H39.438a1,1,0,0,1,.971.758L41.72,25H22.28ZM8,23a1,1,0,0,1,1-1h6a1,1,0,0,1,1,1v2H8ZM6,27H58a3,3,0,0,1,3,3v3H42.164a14.913,14.913,0,0,0-20.328,0H3V30A3,3,0,0,1,6,27ZM19,44A13,13,0,1,1,32,57,13.015,13.015,0,0,1,19,44Zm1.028,9H3V35H20.028a14.889,14.889,0,0,0,0,18ZM47,44a14.9,14.9,0,0,0-3.028-9H61V53H43.972A14.9,14.9,0,0,0,47,44ZM58,61H6a3,3,0,0,1-3-3V55H21.836a14.913,14.913,0,0,0,20.328,0H61v3A3,3,0,0,1,58,61Z"/><path d="M32,55A11,11,0,1,0,21,44,11.013,11.013,0,0,0,32,55Zm0-20a9,9,0,1,1-9,9A9.01,9.01,0,0,1,32,35Z"/><path d="M51,9.35a6.772,6.772,0,0,0-2.936-2.141,4.424,4.424,0,0,0-4.936,1.629,6.288,6.288,0,0,0-.664,1.216,6.012,6.012,0,0,0,1.5,6.5L50.3,22.717a1,1,0,0,0,1.394,0l6.359-6.18a5.974,5.974,0,0,0,1.65-6.017,6.269,6.269,0,0,0-.225-.586L61.6,7.818a4.348,4.348,0,0,0,.637-5.474,3.11,3.11,0,0,0-3.521-1.19A4.072,4.072,0,0,0,57,2.357a4.072,4.072,0,0,0-1.713-1.2,3.11,3.11,0,0,0-3.521,1.19,4.41,4.41,0,0,0-.683,1.629,4.227,4.227,0,0,0,1.254,3.779l.192.192A8.532,8.532,0,0,0,51,9.35Zm2.045-4.989a2.389,2.389,0,0,1,.375-.892A1.086,1.086,0,0,1,54.32,3a1.112,1.112,0,0,1,.346.055c.244.08.763.38,1.5,1.5a1.04,1.04,0,0,0,1.67,0c.736-1.116,1.255-1.416,1.5-1.5a1.1,1.1,0,0,1,1.261.436A2.366,2.366,0,0,1,60.183,6.4L57,9.586,53.751,6.338h0A2.271,2.271,0,0,1,53.045,4.361Zm-1.218,7.2a7.089,7.089,0,0,1,2.146-2.174l2.32,2.319a1,1,0,0,0,1.414,0l.186-.186A4.031,4.031,0,0,1,56.661,15.1L51,20.605l-5.644-5.484a4,4,0,0,1-1.042-4.308,4.305,4.305,0,0,1,.454-.83,2.406,2.406,0,0,1,2.691-.867,5.954,5.954,0,0,1,2.714,2.446,1,1,0,0,0,1.654,0Z"/></svg>
